<?xml version="1.0" encoding="UTF-8"?>
<svg id="Layer_1" data-name="Layer 1" xmlns="http://www.w3.org/2000/svg" viewBox="0 0 146.73 118.25">
  <defs>
    <style>
      .cls-1 {
        fill: #ef5080;
        opacity: .75;
      }

      .cls-2 {
        fill: #37337d;
        opacity: .9;
      }
    </style>
  </defs>
  <path class="cls-2" d="M136.2,80.38c0,20.92-15.59,37.87-34.81,37.87-.77,0-1.54-.03-2.3-.09v.09H0L61.59,42.51h37.49v.09c.76-.06,1.53-.09,2.3-.09,19.22,0,34.81,16.96,34.81,37.87Z"/>
  <path class="cls-1" d="M9.75,37.12C10.2,16.21,26.16-.41,45.38,0c.77,.02,1.54,.06,2.29,.14V.06S117.66,1.57,117.66,1.57l29.07,.63-63.22,74.39-37.48-.81v-.09c-.76,.04-1.53,.05-2.29,.04-19.22-.42-34.44-17.71-33.99-38.62Z"/>
</svg>